<svg width="200" height="50" viewBox="0 0 200 50" fill="none" xmlns="http://www.w3.org/2000/svg">
<path d="M12.3284 32.698C8.10344 32.698 4.66144 29.308 4.66144 25.146C4.66144 20.984 8.10244 17.593 12.3264 17.593H12.8064V13H12.3274C5.53444 13 0.00244141 18.451 0.00244141 25.145C0.00244141 31.883 5.53444 37.334 12.3284 37.334H12.8074V32.7H12.3284V32.698Z" fill="#FF4B5F"/>
<path fill-rule="evenodd" clip-rule="evenodd" d="M14.8105 19.5684V13.2598C20.4734 14.375 24.6975 19.2676 24.6975 25.1465C24.6975 31.0703 20.4714 35.9609 14.8105 37.0352V30.7266H12.3274C9.19238 30.7266 6.6665 28.2363 6.6665 25.1484C6.6665 22.0586 9.19238 19.5684 12.3286 19.5684H14.8105ZM38.5916 30.6387C39.8755 30.6426 41.1204 30.2031 42.1184 29.3945L44.0784 31.3281C42.6414 32.6133 40.7253 33.3867 38.5916 33.3867C33.9744 33.3867 30.2725 29.6523 30.2725 25.1465C30.2725 20.6406 33.9744 16.9492 38.5916 16.9492C40.6655 16.9434 42.6675 17.709 44.2095 19.0957L42.2495 21.0254C41.2385 20.1367 39.9375 19.6484 38.5916 19.6543C35.4976 19.6543 33.0164 22.0996 33.0164 25.1465C33.0164 28.1934 35.4985 30.6387 38.5916 30.6387ZM124.612 24.8887L130.752 17.5938H133.191V32.6992H130.752V21.7988L124.612 28.9219L118.384 21.627V32.7012H115.9V17.5938H118.384V17.6797L118.427 17.5938L124.612 24.8887ZM54.3574 33.3438C58.9304 33.3438 62.6765 29.6953 62.6765 25.1465C62.6765 20.6406 58.9304 16.9492 54.3574 16.9492C49.7844 16.9492 46.0396 20.6406 46.0396 25.1465C46.0396 29.6523 49.7415 33.3438 54.3574 33.3438ZM54.3145 19.6543C57.4075 19.6543 59.8894 22.0996 59.8894 25.1465C59.8894 28.1934 57.4075 30.6387 54.3145 30.6387C51.2214 30.6387 48.7395 28.1934 48.7395 25.1465C48.7395 22.0996 51.2214 19.6543 54.3145 19.6543ZM105.055 33.3438C109.628 33.3438 113.375 29.6953 113.375 25.1465C113.375 20.6406 109.671 16.9492 105.055 16.9492C100.482 16.9492 96.7366 20.6406 96.7366 25.1465C96.7366 29.6523 100.438 33.3438 105.055 33.3438ZM105.055 19.6543C108.148 19.6543 110.63 22.0996 110.63 25.1465C110.63 28.1934 108.104 30.6387 105.055 30.6387C101.962 30.6387 99.4805 28.1934 99.4805 25.1465C99.4805 22.0996 101.962 19.6543 105.055 19.6543ZM93.3384 17.5938H96.6934L89.1145 25.1895L96.6055 32.7012H93.2954L86.9795 26.3906H84.4543V32.7012H82.0154V17.5938H84.4543V23.9453H87.0244L93.3384 17.5938ZM196.694 17.5938H200.002L192.468 25.1895L199.916 32.7012H196.605L190.334 26.3906H187.764V32.7012H185.325V17.5938H187.764V23.9453H190.334L196.694 17.5938ZM166.641 32.6992H163.939L162.46 29.4395H154.532L153.052 32.7012H150.353L157.103 17.5938H159.889L166.641 32.6992ZM158.497 20.6836L155.623 27.0352H161.372L158.497 20.6836ZM77.4854 25.1465C78.3735 25.9629 78.8794 27.1152 78.8794 28.3223C78.8794 30.7246 76.9194 32.7012 74.4795 32.7441H65.5085V17.5938H74.4795C76.9023 17.5898 78.8713 19.5488 78.8794 21.9707C78.8794 23.2148 78.3125 24.332 77.4854 25.1465ZM74.4365 20.041H67.9905V23.9004H74.4365C75.5254 23.9004 76.3955 23.043 76.3955 21.9707C76.3955 20.8965 75.5254 20.041 74.4365 20.041ZM67.9905 30.2969H74.4365C75.5264 30.2969 76.3965 29.3945 76.4395 28.3242C76.4395 27.8145 76.2261 27.3359 75.8784 26.9824C75.5237 26.623 75.0293 26.3926 74.4795 26.3926H67.9905V30.2969ZM179.794 23.9453V17.6367H182.277V32.6562H179.794V26.3887H170.866V32.6562H168.385V17.6367H170.866V23.9453H179.794ZM145.037 23.9453C147.477 23.9453 149.48 25.918 149.48 28.3223C149.48 30.7246 147.478 32.7012 145.036 32.7422H136.108V17.5938H148V20.0391H138.592V23.9453H145.037ZM138.593 30.2969H145.039C146.127 30.2969 146.999 29.3945 146.999 28.3242C146.999 27.293 146.127 26.3926 145.039 26.3926H138.593V30.2969Z" fill="#003791"/>
</svg>
