<svg width="40" height="40" viewBox="0 0 40 40" fill="none" xmlns="http://www.w3.org/2000/svg">
<path d="M23.987 0.425781V10.7965H19.9667C14.8872 10.7965 10.7957 14.8879 10.7957 19.9672C10.7957 25.0448 14.8872 29.1362 19.9651 29.1362H23.987V39.5069C33.1564 37.7431 40.0015 29.7017 40.0015 19.9655C40.0015 10.3017 33.1596 2.26025 23.987 0.425781Z" fill="#003791"/>
<path d="M19.9666 32.3794C13.1231 32.3794 7.54791 26.8069 7.54791 19.9655C7.54791 13.124 13.1215 7.54993 19.9634 7.54993H20.7408V0H19.965C8.96196 0 0.00146484 8.9603 0.00146484 19.9638C0.00146484 31.0397 8.96196 40 19.9666 40H20.7425V32.3827H19.9666V32.3794Z" fill="#FF4B5F"/>
</svg>
